# AST/ASF file generated using VICON BodyLanguage
# -----------------------------------------------
:version 1.10
:name VICON
:units
  mass 1.0
  length 0.45
  angle deg
:documentation
   .ast/.asf automatically generated from VICON data using
   VICON BodyBuilder and BodyLanguage model FoxedUp or BRILLIANT.MOD
:root
   order TX TY TZ RX RY RZ
   axis XYZ
   position 0 0 0  
   orientation 0 0 0 
:bonedata
  begin
     id 1 
     name lhipjoint
     direction 0.682418 -0.694059 0.22932 
     length 2.25561 
     axis 0 0 0  XYZ
  end
  begin
     id 2 
     name lfemur
     direction 0.34202 -0.939693 0  
     length 6.96448  
     axis 0 0 20  XYZ
    dof rx ry rz
    limits (-160.0 20.0)
           (-70.0 70.0)
           (-60.0 70.0)
  end
  begin
     id 3 
     name ltibia
     direction 0.34202 -0.939693 0   
     length 6.88553   
     axis 0 0 20   XYZ
    dof rx
    limits (-10.0 170.0)
  end
  begin
     id 4 
     name lfoot
     direction 0.0723587 -0.198804 0.977364   
     length 1.88518   
     axis -90 7.62852e-016 20   XYZ
    dof rx rz
    limits (-45.0 90.0)
           (-70.0 20.0)
  end
  begin
     id 5 
     name ltoes
     direction 1.53558e-011 -4.21962e-011 1   
     length 0.952124   
     axis -90 7.62852e-016 20   XYZ
    dof rx
    limits (-90.0 20.0)
  end
  begin
     id 6 
     name rhipjoint
     direction -0.657603 -0.71533 0.236348   
     length 2.18854  
     axis 0 0 0  XYZ 
  end
  begin
     id 7 
     name rfemur
     direction -0.34202 -0.939693 0   
     length 6.86686   
     axis 0 0 -20   XYZ
    dof rx ry rz
    limits (-160.0 20.0)
           (-70.0 70.0)
           (-70.0 60.0)
  end
  begin
     id 8 
     name rtibia
     direction -0.34202 -0.939693 0   
     length 6.59503   
     axis 0 0 -20   XYZ
    dof rx
    limits (-10.0 170.0)
 end
 begin
     id 9 
     name rfoot
     direction -0.101977 -0.280179 0.954516   
     length 1.93723  
     axis -90 -7.62852e-016 -20   XYZ
    dof rx rz
    limits (-45.0 90.0)
           (-20.0 70.0)
  end
  begin
     id 10 
     name rtoes
     direction -1.53564e-011 -4.21897e-011 1   
     length 0.970315   
     axis -90 -7.62852e-016 -20   XYZ
    dof rx
    limits (-90.0 20.0)
  end
  begin
     id 11 
     name lowerback
     direction -0.0339559 0.999421 -0.00235966   
     length 1.88543   
     axis 0 0 0   XYZ
    dof rx ry rz
    limits (-20.0 45.0)
           (-30.0 30.0)
           (-30.0 30.0)
  end
  begin
     id 12 
     name upperback
     direction 0.00401003 0.999739 0.0224689   
     length 1.8856   
     axis 0 0 0   XYZ
    dof rx ry rz
    limits (-20.0 45.0)
           (-30.0 30.0)
           (-30.0 30.0)
  end
  begin
     id 13 
     name thorax
     direction 0.0198619 0.999546 0.0226536   
     length 1.88352   
     axis 0 0 0   XYZ
    dof rx ry rz
    limits (-20.0 45.0)
           (-30.0 30.0)
           (-30.0 30.0)
  end
  begin
     id 14 
     name lowerneck
     direction -0.0461848 0.998632 0.0245198   
     length 1.34895   
     axis 0 0 0   XYZ
    dof rx ry rz
    limits (-20.0 45.0)
           (-30.0 30.0)
           (-30.0 30.0)
  end
  begin
     id 15 
     name upperneck
     direction -0.0180627 0.994724 -0.100984   
     length 1.35214   
     axis 0 0 0   XYZ
    dof rx ry rz
    limits (-20.0 45.0)
           (-30.0 30.0)
           (-30.0 30.0)
  end
  begin
     id 16
     name head
     direction -0.00374772 0.999293 -0.037403  
     length 1.3568  
     axis 0 0 0   XYZ
    dof rx ry rz
    limits (-20.0 45.0)
           (-30.0 30.0)
           (-30.0 30.0)
  end
  begin
     id 17 
     name lclavicle
     direction 0.971773 0.191119 0.138311  
     length 2.84954  
     axis 0 0 0   XYZ
    dof ry rz
    limits (-20.0 10.0)
           (0.0 20.0)
  end
  begin
     id 18 
     name lhumerus
     direction 1 -4.4897e-011 -2.43761e-027   
     length 4.40919   
     axis 180 -30 -90   XYZ
    dof rx ry rz
    limits (-60.0 90.0)
           (-90.0 90.0)
           (-90.0 90.0)
  end
  begin
     id 19
     name lradius
     direction 1 -4.4896e-011 -9.1621e-027   
     length 3.03857   
     axis 180 -30 -90   XYZ
    dof rx
    limits (-10.0 170.0)
  end
  begin
     id 20
     name lwrist
     direction 1 -4.4896e-011 -1.41363e-026   
     length 1.51928   
     axis 1.07133e-014 90 90   XYZ
    dof ry
    limits (-180.0 0.0)
 end
  begin
     id 21 
     name lhand
     direction 1 -4.48978e-011 -2.82725e-026   
     length 0.523208   
     axis 1.80403e-014 90 90   XYZ
    dof rx rz
    limits (-90.0 90.0)
           (-45.0 45.0)
  end
  begin
     id 22 
     name lfingers
     direction 1 -4.48977e-011 -5.6545e-026   
     length 0.421824   
     axis 3.60806e-014 90 90   XYZ
    dof rx
    limits (0.0 90.0)
  end
  begin
     id 23
     name lthumb
     direction 0.707107 -6.34962e-011 0.707107   
     length 0.605657   
     axis -90 45 2.85299e-015   XYZ
    dof rx rz
    limits (-45.0 45.0)
           (-45.0 45.0)
  end
  begin
     id 24 
     name rclavicle
     direction -0.957247 0.24311 0.156766   
     length 3.12406  
     axis 0 0 0   XYZ 
    dof ry rz
    limits (-10.0 20.0)
           (-20.0 0.0)
  end
  begin
     id 25 
     name rhumerus
     direction -1 -4.48964e-011 -1.70632e-027  
     length 4.61969   
     axis 180 30 90   XYZ
    dof rx ry rz
    limits (-90.0 60.0)
           (-90.0 90.0)
           (-90.0 90.0)
  end
  begin
     id 26 
     name rradius
     direction -1 -4.48966e-011 -6.60395e-027   
     length 3.09382   
     axis 180 30 90   XYZ
    dof rx
    limits (-10.0 170.0)
  end
  begin
     id 27 
     name rwrist
     direction -1 -4.48963e-011 -1.41363e-026   
     length 1.54691   
     axis 1.07133e-014 -90 -90   XYZ
    dof ry
    limits (-180.0 0.0)
  end
  begin
     id 28
     name rhand
     direction -1 -4.49013e-011 -2.82725e-026   
     length 0.500896   
     axis 1.80403e-014 -90 -90   XYZ
    dof rx rz
    limits (-90.0 90.0)
           (-45.0 45.0)
  end
  begin
     id 29
     name rfingers
     direction -1 -4.48902e-011 -5.6545e-026   
     length 0.403835   
     axis 3.60806e-014 -90 -90   XYZ
    dof rx
    limits (0.0 90.0)
  end
  begin
     id 30
     name rthumb
     direction -0.707107 -6.34953e-011 0.707107   
     length 0.579829   
     axis -90 -45 -2.85299e-015   XYZ
    dof rx rz
    limits (-45.0 45.0)
           (-45.0 45.0)
  end
:hierarchy
  begin
    root lhipjoint rhipjoint lowerback
    lhipjoint lfemur
    lfemur ltibia
    ltibia lfoot
    lfoot ltoes
    rhipjoint rfemur
    rfemur rtibia
    rtibia rfoot
    rfoot rtoes
    lowerback upperback
    upperback thorax
    thorax lowerneck lclavicle rclavicle
    lowerneck upperneck
    upperneck head
    lclavicle lhumerus
    lhumerus lradius
    lradius lwrist
    lwrist lhand lthumb
    lhand lfingers
    rclavicle rhumerus
    rhumerus rradius
    rradius rwrist
    rwrist rhand rthumb
    rhand rfingers
  end

#!OML:ASF E:\madness\Project 1\Capture day 1\Session 1\Female1.ASF
:FULLY-SPECIFIED
:DEGREES
136
root 1.6425 15.817 -1.81161 3.37686 -52.5578 5.99076
lowerback 9.46536 4.63414 3.14737
upperback -0.190363 6.57478 1.38509
thorax -5.29957 3.16532 -1.21096
lowerneck -2.46829 2.69144 2.23533
upperneck 6.80076 4.45342 -15.0393
head 2.80643 1.75107 -4.78565
rclavicle -1.03368e-014 -1.90833e-014
rhumerus -49.4445 -12.0713 -23.3341
rradius 95.5448
rwrist -8.56561
rhand -19.4884 -45.3814
rfingers 7.12502
rthumb 6.83371 -75.2511
lclavicle -1.03368e-014 -1.90833e-014
lhumerus -67.4202 3.87534 70.7533
lradius 106.902
lwrist -0.864694
lhand -24.2738 -19.4565
lfingers 7.12502
lthumb 2.2129 10.5118
rfemur -25.8171 -9.96415 20.1471
rtibia 40.1451
rfoot -27.109 -18.5089
rtoes 30.4347
lfemur -47.6928 -19.2245 -16.0397
ltibia 58.3941
lfoot -7.85135 -8.97139
ltoes 15.8218
137
root 1.70224 15.8061 -1.80751 3.10074 -52.548 6.5279
lowerback 9.61776 4.84706 2.90121
upperback -0.105973 6.84274 1.58384
thorax -5.33999 3.30481 -0.916682
lowerneck -2.72385 2.91342 1.6745
upperneck 7.09793 4.82214 -14.9606
head 2.95848 1.89583 -4.64936
rclavicle -1.66979e-014 -2.70347e-014
rhumerus -47.9519 -11.8967 -22.8203
rradius 96.224
rwrist -8.99334
rhand -19.1501 -44.1654
rfingers 7.12502
rthumb 7.16029 -74.0243
lclavicle -1.66979e-014 -2.70347e-014
lhumerus -67.8954 4.20922 70.7926
lradius 107.579
lwrist -0.805809
lhand -24.4559 -19.5806
lfingers 7.12502
lthumb 2.03706 10.3894
rfemur -26.3213 -10.3905 19.7833
rtibia 40.3781
rfoot -26.5124 -18.6078
rtoes 28.6014
lfemur -48.5918 -19.2587 -16.3883
ltibia 59.5664
lfoot -8.05677 -9.20217
ltoes 15.1865
138
root 1.76149 15.7922 -1.80038 2.87332 -52.6391 6.99132
lowerback 9.87698 4.98028 3.05082
upperback -0.110767 7.04212 1.4936
thorax -5.45505 3.394 -1.14259
lowerneck -2.69562 3.18181 1.44881
upperneck 7.22754 5.20085 -14.7327
head 3.01429 2.08066 -4.52527
rclavicle -1.57835e-013 1.74931e-014
rhumerus -46.5229 -11.6649 -22.8379
rradius 96.8521
rwrist -9.11516
rhand -18.9509 -43.7261
rfingers 7.12502
rthumb 7.35255 -73.5783
lclavicle -1.57835e-013 1.74931e-014
lhumerus -68.3327 4.40757 70.165
lradius 108.214
lwrist -0.717608
lhand -24.0788 -20.6644
lfingers 7.12502
lthumb 2.40129 9.30185
rfemur -26.8272 -10.9553 19.5289
rtibia 40.5844
rfoot -25.494 -18.8987
rtoes 25.0514
lfemur -49.4069 -19.2602 -16.6611
ltibia 60.7839
lfoot -8.42529 -9.14485
ltoes 12.818
139
root 1.81686 15.7819 -1.79222 2.73457 -52.7552 7.19533
lowerback 10.2189 5.04713 3.50411
upperback -0.1146 7.18522 1.2669
thorax -5.56088 3.4449 -1.67547
lowerneck -2.55857 3.43899 1.67295
upperneck 7.29862 5.53718 -14.571
head 3.04127 2.26282 -4.50015
rclavicle -5.52621e-014 -1.59028e-015
rhumerus -45.1958 -11.4448 -23.263
rradius 97.4923
rwrist -9.23331
rhand -18.4016 -43.7816
rfingers 7.12502
rthumb 7.88276 -73.6146
lclavicle -5.52621e-014 -1.59028e-015
lhumerus -68.7011 4.41672 69.1455
lradius 108.89
lwrist -0.621718
lhand -23.5034 -22.0265
lfingers 7.12502
lthumb 2.95697 7.93276
rfemur -27.147 -11.2875 19.3478
rtibia 40.7555
rfoot -24.9367 -18.9103
rtoes 23.0933
lfemur -49.9869 -19.3307 -16.687
ltibia 61.9905
lfoot -8.96076 -8.77136
ltoes 10.4871
140
root 1.86879 15.777 -1.78389 2.55552 -52.9681 7.39509
lowerback 10.4941 5.17137 3.77751
upperback -0.0794736 7.385 1.12023
thorax -5.61478 3.53125 -2.02791
lowerneck -2.58774 3.67015 1.96877
upperneck 7.58422 5.87176 -14.497
head 3.16487 2.42563 -4.51129
rclavicle -3.33958e-014 3.18055e-015
rhumerus -43.9223 -11.1771 -23.732
rradius 98.2551
rwrist -9.39803
rhand -17.9267 -43.0826
rfingers 7.12502
rthumb 8.34107 -72.8979
lclavicle -3.33958e-014 3.18055e-015
lhumerus -68.9755 4.50157 68.3476
lradius 109.589
lwrist -0.462303
lhand -23.5274 -22.0794
lfingers 7.12502
lthumb 2.93377 7.88015
rfemur -27.401 -11.3385 19.0954
rtibia 40.9054
rfoot -24.7817 -18.6697
rtoes 22.8634
lfemur -50.4807 -19.4515 -16.5936
ltibia 63.1371
lfoot -8.91152 -8.42295
ltoes 12.1307
141
root 1.91506 15.7762 -1.77416 2.31972 -53.0781 7.71173
lowerback 10.5174 5.24102 3.614
upperback 0.0158611 7.45981 1.23077
thorax -5.55879 3.5759 -1.83214
lowerneck -2.46045 3.9787 2.24026
upperneck 7.78624 6.32065 -14.7206
head 3.25677 2.64278 -4.60774
rclavicle -5.1684e-014 3.18055e-014
rhumerus -42.1282 -10.673 -24.1358
rradius 98.85
rwrist -9.51485
rhand -17.761 -42.6255
rfingers 7.12502
rthumb 8.50103 -72.4344
lclavicle -5.1684e-014 3.18055e-014
lhumerus -69.204 4.88898 67.881
lradius 110.187
lwrist -0.387245
lhand -23.9048 -21.3766
lfingers 7.12502
lthumb 2.56934 8.58769
rfemur -27.669 -11.4652 18.7743
rtibia 41.0467
rfoot -24.5483 -18.4596
rtoes 22.6472
lfemur -51.0009 -19.6736 -16.4837
ltibia 64.2403
lfoot -8.52786 -8.20782
ltoes 14.8469
142
root 1.95986 15.7738 -1.76223 2.16169 -53.1266 7.91804
lowerback 10.4921 5.22452 3.46619
upperback 0.125125 7.42276 1.41363
thorax -5.4745 3.5665 -1.54931
lowerneck -2.28714 4.36648 2.30061
upperneck 7.95707 6.87253 -14.808
head 3.33226 2.91278 -4.62205
rclavicle 1.86858e-014 4.77083e-015
rhumerus -40.0291 -10.0116 -24.5905
rradius 99.2062
rwrist -9.58369
rhand -17.302 -42.1921
rfingers 7.12502
rthumb 8.94395 -71.9825
lclavicle 1.86858e-014 4.77083e-015
lhumerus -69.5014 5.23671 67.5224
lradius 110.868
lwrist -0.407419
lhand -24.2028 -21.6778
lfingers 7.12502
lthumb 2.28153 8.28979
rfemur -27.9044 -11.6772 18.5292
rtibia 41.1975
rfoot -24.2886 -18.2502
rtoes 22.4363
lfemur -51.4465 -19.9333 -16.2656
ltibia 65.3191
lfoot -8.28114 -7.8178
ltoes 15.4707
143
root 2.00882 15.7693 -1.74983 2.11111 -53.4105 7.95392
lowerback 10.6436 5.2842 3.58758
upperback 0.158913 7.52414 1.47743
thorax -5.51251 3.61179 -1.5769
lowerneck -2.0661 4.75171 2.40608
upperneck 8.12724 7.41078 -14.7972
head 3.39682 3.18348 -4.61456
rclavicle -6.12257e-014 -3.81667e-014
rhumerus -38.2827 -9.22714 -25.1363
rradius 99.642
rwrist -9.49161
rhand -16.3233 -41.7864
rfingers 7.12502
rthumb 9.88826 -71.5342
lclavicle -6.12257e-014 -3.81667e-014
lhumerus -69.7865 5.32851 67.1115
lradius 111.674
lwrist -0.501644
lhand -24.3801 -22.5194
lfingers 7.12502
lthumb 2.11025 7.44996
rfemur -28.1384 -11.703 18.398
rtibia 41.3305
rfoot -23.9794 -18.0324
rtoes 22.3165
lfemur -51.7626 -20.0585 -15.9156
ltibia 66.3765
lfoot -8.14134 -7.13455
ltoes 14.6559
144
root 2.05628 15.7684 -1.73594 1.97591 -53.7603 8.11747
lowerback 10.7403 5.40491 3.68311
upperback 0.180623 7.69826 1.46767
thorax -5.52204 3.69391 -1.67144
lowerneck -1.69045 5.09323 2.63129
upperneck 8.16335 7.86863 -14.8228
head 3.39394 3.43034 -4.64638
rclavicle 1.10524e-013 -4.77083e-014
rhumerus -36.7622 -8.29262 -25.7311
rradius 100.06
rwrist -9.14333
rhand -15.6898 -41.1961
rfingers 7.12502
rthumb 10.4994 -70.9138
lclavicle 1.10524e-013 -4.77083e-014
lhumerus -69.827 5.26042 66.6514
lradius 112.435
lwrist -0.553403
lhand -24.3662 -22.9194
lfingers 7.12502
lthumb 2.12366 7.04979
rfemur -28.3607 -11.5373 18.1073
rtibia 41.4399
rfoot -23.9923 -17.4763
rtoes 24.0157
lfemur -51.9963 -20.1773 -15.6022
ltibia 67.4116
lfoot -8.173 -6.3468
ltoes 13.3014
145
root 2.10002 15.7731 -1.72013 1.82305 -54.0285 8.35387
lowerback 10.6836 5.48316 3.75989
upperback 0.227953 7.80188 1.39011
thorax -5.41423 3.74579 -1.79745
lowerneck -1.41178 5.39702 2.95188
upperneck 8.30317 8.28109 -14.767
head 3.43572 3.65203 -4.66836
rclavicle -1.10922e-013 -4.29375e-014
rhumerus -35.2716 -7.40238 -26.463
rradius 100.349
rwrist -8.63281
rhand -15.7465 -39.9793
rfingers 7.12502
rthumb 10.4447 -69.6998
lclavicle -1.10922e-013 -4.29375e-014
lhumerus -69.6848 4.98156 66.3609
lradius 113.312
lwrist -0.202758
lhand -25.0368 -22.7204
lfingers 7.12502
lthumb 1.476 7.25426
rfemur -28.6097 -11.4728 17.7798
rtibia 41.537
rfoot -23.9502 -16.9494
rtoes 25.1552
lfemur -52.2327 -20.3401 -15.2677
ltibia 68.4284
lfoot -8.04466 -5.90585
ltoes 14.6008
146
root 2.14509 15.7741 -1.70254 1.6754 -54.3531 8.59991
lowerback 10.6424 5.56219 3.82345
upperback 0.241575 7.90604 1.28078
thorax -5.34737 3.79675 -1.95255
lowerneck -1.34768 5.73447 3.2942
upperneck 8.71888 8.76645 -14.5925
head 3.60023 3.89316 -4.64538
rclavicle 2.18663e-014 4.77083e-015
rhumerus -33.9323 -6.52204 -27.2052
rradius 100.803
rwrist -8.46235
rhand -15.9234 -39.2821
rfingers 7.12502
rthumb 10.274 -69.0112
lclavicle 2.18663e-014 4.77083e-015
lhumerus -69.4283 4.60411 66.1138
lradius 114.171
lwrist 0.159392
lhand -25.8468 -22.7439
lfingers 7.12502
lthumb 0.693688 7.23467
rfemur -28.9368 -11.6212 17.5921
rtibia 41.6159
rfoot -23.2914 -16.9877
rtoes 23.3546
lfemur -52.4538 -20.436 -14.9159
ltibia 69.4434
lfoot -7.74297 -5.62814
ltoes 16.163
